<svg height="512" viewBox="0 0 256 256" width="512" xmlns="http://www.w3.org/2000/svg"><path d="m179.9 171.47h-103.8a2.5 2.5 0 1 1 0-5h103.8a2.5 2.5 0 0 1 0 5z" fill="#ebe7f2"/><g fill="#a58bc9"><path d="m103.98 126.5a1 1 0 0 0 -.935-.646h-1.993a1 1 0 0 0 -.935.646l-9.39 24.813a1 1 0 0 0 .935 1.353h2.2a1 1 0 0 0 .939-.655l2.315-6.315h9.87l2.332 6.317a1 1 0 0 0 .938.653h2.182a1 1 0 0 0 .935-1.353zm-5.48 15.424 3.542-9.62 3.542 9.62z"/><path d="m133.4 128.08a9.911 9.911 0 0 0 -6.77-2.226h-8.453a1 1 0 0 0 -1 1v24.812a1 1 0 0 0 1 1h2.1a1 1 0 0 0 1-1v-9.1h5.306a10.155 10.155 0 0 0 6.907-2.151 8.76 8.76 0 0 0 -.086-12.33zm-1.516 6.212a4.192 4.192 0 0 1 -1.273 3.3 5.8 5.8 0 0 1 -3.981 1.192h-5.357v-9.162h5.481a5.471 5.471 0 0 1 3.844 1.283 4.43 4.43 0 0 1 1.285 3.387z"/><path d="m160.786 151.035-10.643-13.091 9.795-10.4a1 1 0 0 0 -.728-1.685h-2.642a1 1 0 0 0 -.724.311l-10.989 11.563v-10.879a1 1 0 0 0 -1-1h-2.095a1 1 0 0 0 -1 1v24.812a1 1 0 0 0 1 1h2.095a1 1 0 0 0 1-1v-8.46l2.416-2.38 9.411 11.474a1 1 0 0 0 .773.366h2.556a1 1 0 0 0 .775-1.631z"/><path d="m106.8 70.75a8 8 0 1 1 8-8 8.009 8.009 0 0 1 -8 8zm0-11a3 3 0 1 0 3 3 3 3 0 0 0 -3-3z"/><path d="m149.2 70.75a8 8 0 1 1 8-8 8.009 8.009 0 0 1 -8 8zm0-11a3 3 0 1 0 3 3 3 3 0 0 0 -3-3z"/></g><path d="m163.166 38.108 7.777-13.886a2.5 2.5 0 1 0 -4.361-2.444l-7.417 13.24a54.222 54.222 0 0 0 -62.331 0l-7.415-13.24a2.5 2.5 0 1 0 -4.362 2.444l7.777 13.887a54.29 54.29 0 0 0 -19.234 41.459v10.073a2.5 2.5 0 0 0 2.5 2.5h103.8a2.5 2.5 0 0 0 2.5-2.5v-10.073a54.293 54.293 0 0 0 -19.234-41.46zm14.234 49.033h-98.8v-7.573a49.4 49.4 0 0 1 98.8 0z" fill="#846f75"/><path d="m179.9 99.18h-103.8a2.5 2.5 0 0 0 -2.5 2.5v79.64a7.508 7.508 0 0 0 7.5 7.5h9.747v32.922a13.758 13.758 0 0 0 27.516 0v-32.922h19.278v32.922a13.758 13.758 0 1 0 27.516 0v-32.922h9.743a7.508 7.508 0 0 0 7.5-7.5v-79.64a2.5 2.5 0 0 0 -2.5-2.5zm-2.5 82.14a2.5 2.5 0 0 1 -2.5 2.5h-12.245a2.5 2.5 0 0 0 -2.5 2.5v35.422a8.758 8.758 0 1 1 -17.516 0v-35.422a2.5 2.5 0 0 0 -2.5-2.5h-24.278a2.5 2.5 0 0 0 -2.5 2.5v35.422a8.758 8.758 0 0 1 -17.516 0v-35.422a2.5 2.5 0 0 0 -2.5-2.5h-12.245a2.5 2.5 0 0 1 -2.5-2.5v-77.14h98.8z" fill="#846f75"/><path d="m55.422 99.18a14.093 14.093 0 0 0 -14.077 14.077v35.416a14.078 14.078 0 0 0 28.155 0v-35.416a14.093 14.093 0 0 0 -14.078-14.077zm9.078 49.493a9.078 9.078 0 0 1 -18.155 0v-35.416a9.078 9.078 0 0 1 18.155 0z" fill="#846f75"/><path d="m200.577 99.18a14.093 14.093 0 0 0 -14.077 14.077v35.416a14.078 14.078 0 0 0 28.155 0v-35.416a14.093 14.093 0 0 0 -14.078-14.077zm9.078 49.493a9.078 9.078 0 0 1 -18.155 0v-35.416a9.078 9.078 0 0 1 18.155 0z" fill="#846f75"/></svg>