<?xml version="1.0" encoding="utf-8"?>
<!-- Generator: Adobe Illustrator 20.0.0, SVG Export Plug-In . SVG Version: 6.00 Build 0)  -->
<svg version="1.1" xmlns="http://www.w3.org/2000/svg" xmlns:xlink="http://www.w3.org/1999/xlink" x="0px" y="0px"
	 viewBox="0 0 400 400" style="enable-background:new 0 0 400 400;" xml:space="preserve">
<style type="text/css">
	.st0{fill:#A6B7DE;stroke:#A6B7DE;stroke-width:5;stroke-miterlimit:10;}
	.st1{display:none;}
	.st2{display:inline;}
	.st3{fill:#9FB2DB;}
	.st4{fill:#A5B6DD;}
	.st5{display:inline;fill:none;stroke:#A6B7DE;stroke-width:7;stroke-miterlimit:10;}
</style>
<g id="Layer_1">
	<g>
		<path class="st0" d="M371.5,378.7c-35.7-35.5-71.4-70.9-106.9-106.3c-76.3,60.6-163.8,28.4-199.4-22
			C25,193.8,33.8,116.5,86.7,70.9c52.1-44.9,131.2-42.4,181.2,5.3c48.8,46.6,58.3,130.9,1.9,190.6c17.9,18.1,35.7,36.3,53.6,54.4
			c17.6,17.7,35.2,35.2,52.9,52.8C374.7,375.6,373.1,377.2,371.5,378.7z M174.4,45.6c-70.4,0-127.7,56.9-127.6,126.7
			c0.1,69.2,57.3,126.2,127,126.6c70.3,0.3,127.9-56.7,127.9-126.5C301.8,102.1,245,45.6,174.4,45.6z"/>
	</g>
</g>
<g id="Layer_4">
	<g>
	</g>
</g>
<g id="Layer_2" class="st1">
	<g class="st2">
		<path class="st3" d="M-35.7,257.5c4.1-1.4,7.2-1.4,10.3,0.1C5,336.4,79.4,366,144.3,348.2c71.6-19.5,107.3-83.3,103.7-143.4
			c-4.4-73-62.2-129.5-135.3-132.2C45.8,70.2-11.4,115.8-26.4,175.1c1.8,2.3,4.7,0.8,7.7,2.3c1.3,5.4,0.3,11.6,0.5,17.7
			c0.2,5.8,0,11.6,0,16c-1.7,4.4-5.5,1.7-7.1,4.8c-1.5,5.5,0.8,12.2-2.5,20.6c-4.8-8.3-1.5-15.2-3.6-21.1c-2.4-2.5-5.3-0.7-8-1.3
			c-3.1,6.6,0.6,13.6-3,20.6c-6.3-5.7-1.2-12.9-3.2-16.7c-0.7-4.5-5.1-3.5-4.7-6.8c0-11.2,0-22.4,0-33.3c3.6-2.7,7.7-0.2,11.5-2.4
			c11.6-40.9,35.2-73.3,72.9-94.5C66.9,62.7,102,57.1,138.7,64.6C211.6,79.3,263,145.1,259,221.2c-3.6,70.4-55.3,133.7-136.9,142.2
			C50.7,370.9-16.2,325-35.7,257.5z"/>
		<path class="st4" d="M170.1,203.4c-28.8-17.1-57.8-34-86.9-50.6c-13.3-7.6-21.2-2.6-21.3,13c-0.1,16.6,0,33.3,0,49.9
			s-0.2,33.3,0,49.9c0.2,14.8,8,19.6,20.8,12.4c29.1-16.6,58.1-33.5,87-50.6C182.8,219.8,182.9,211,170.1,203.4z M73,271.2
			c0-38.1,0-73.6,0-111.2c32.7,17.3,63,36.3,96.3,55.2C136.6,234.3,105.6,252.3,73,271.2z"/>
	</g>
</g>
<g id="Layer_3" class="st1">
	<path class="st5" d="M37,222.9c-1.4-8.9-2.2-18-2.2-27.2C34.8,102.5,110.4,27,203.5,27s168.7,75.5,168.7,168.7
		s-75.5,168.7-168.7,168.7C119.6,364.3,50,303.1,37,222.9"/>
</g>
</svg>
