<?xml version="1.0" encoding="utf-8"?>
<!-- Generator: Adobe Illustrator 16.0.0, SVG Export Plug-In . SVG Version: 6.00 Build 0)  -->
<!DOCTYPE svg PUBLIC "-//W3C//DTD SVG 1.1//EN" "http://www.w3.org/Graphics/SVG/1.1/DTD/svg11.dtd" [
	<!ENTITY ns_flows "http://ns.adobe.com/Flows/1.0/">
	<!ENTITY ns_extend "http://ns.adobe.com/Extensibility/1.0/">
	<!ENTITY ns_ai "http://ns.adobe.com/AdobeIllustrator/10.0/">
	<!ENTITY ns_graphs "http://ns.adobe.com/Graphs/1.0/">
]>
<svg version="1.1" id="Layer_1" xmlns:x="&ns_extend;" xmlns:i="&ns_ai;" xmlns:graph="&ns_graphs;"
	 xmlns="http://www.w3.org/2000/svg" xmlns:xlink="http://www.w3.org/1999/xlink" xmlns:a="http://ns.adobe.com/AdobeSVGViewerExtensions/3.0/"
	 x="0px" y="0px" width="16.308px" height="16.308px" viewBox="0 0 16.308 16.308" enable-background="new 0 0 16.308 16.308"
	 xml:space="preserve">
<g>
	<g>
		<g>
			<path fill="#FFFFFF" d="M16.308,8.154C16.308,3.651,12.657,0,8.154,0C3.649,0,0,3.651,0,8.154s3.649,8.154,8.154,8.154
				C12.657,16.308,16.308,12.657,16.308,8.154"/>
			<path fill="#5B358C" d="M6.742,10.087c-1.844,0-3.345-1.5-3.345-3.345c0-1.845,1.501-3.346,3.345-3.346s3.345,1.501,3.345,3.346
				C10.087,8.587,8.586,10.087,6.742,10.087z M6.742,4.426c-1.276,0-2.315,1.039-2.315,2.316c0,1.277,1.039,2.315,2.315,2.315
				S9.058,8.02,9.058,6.743C9.058,5.465,8.019,4.426,6.742,4.426z"/>
		</g>
		
			<rect x="9.291" y="10.683" transform="matrix(0.7071 0.7071 -0.7071 0.7071 11.1981 -4.6381)" fill="#5B358C" width="3.813" height="1.03"/>
	</g>
</g>
</svg>
